<svg xmlns="http://www.w3.org/2000/svg" width="760" height="150" viewBox="0 0 760 150">
  <defs>
    <style>
      .bg { fill: #0d1117; }
      .card { fill: #161b22; stroke: #30363d; stroke-width: 1; }
      .h1 { font: 600 14px "Segoe UI", Roboto, Helvetica, Arial, sans-serif; fill: #c9d1d9; }
      .txt { font: 500 12px "Segoe UI", Roboto, Helvetica, Arial, sans-serif; fill: #c9d1d9; }
      .muted { font: 500 12px "Segoe UI", Roboto, Helvetica, Arial, sans-serif; fill: #8b949e; }
      .barBg { fill: #30363d; }
      .barFg { fill: #c9d1d9; }
    </style>
  </defs>

  <rect x="0" y="0" width="760" height="150" class="bg"/>
  <rect x="14" y="16" width="732" height="118" rx="10" class="card"/>

  <text x="34" y="44" class="h1">I'm a Night</text>

  <g transform="translate(34 60)">
    <text x="0" y="14" class="txt">Morning</text>
    <text x="120" y="14" class="muted">116 commits</text>
    <rect x="260" y="3" width="320" height="12" rx="6" class="barBg"/>
    <rect x="260" y="3" width="26" height="12" rx="6" class="barFg"/>
    <text x="600" y="14" class="muted">8.11%</text>

    <text x="0" y="38" class="txt">Daytime</text>
    <text x="120" y="38" class="muted">537 commits</text>
    <rect x="260" y="27" width="320" height="12" rx="6" class="barBg"/>
    <rect x="260" y="27" width="120" height="12" rx="6" class="barFg"/>
    <text x="600" y="38" class="muted">37.55%</text>

    <text x="0" y="62" class="txt">Evening</text>
    <text x="120" y="62" class="muted">481 commits</text>
    <rect x="260" y="51" width="320" height="12" rx="6" class="barBg"/>
    <rect x="260" y="51" width="108" height="12" rx="6" class="barFg"/>
    <text x="600" y="62" class="muted">33.64%</text>

    <text x="0" y="86" class="txt">Night</text>
    <text x="120" y="86" class="muted">296 commits</text>
    <rect x="260" y="75" width="320" height="12" rx="6" class="barBg"/>
    <rect x="260" y="75" width="66" height="12" rx="6" class="barFg"/>
    <text x="600" y="86" class="muted">20.7%</text>
  </g>
</svg>

